HIERARCHY
ROOT Hips
{
    OFFSET 0.0 0.0 0.0
    CHANNELS 6 Xposition Yposition Zposition Zrotation Xrotation Yrotation
    JOINT Spine
    {
        OFFSET 0.0 5.0 0.0
        CHANNELS 3 Zrotation Xrotation Yrotation
        JOINT Chest
        {
            OFFSET 0.0 5.0 0.0
            CHANNELS 3 Zrotation Xrotation Yrotation
            JOINT Neck
            {
                OFFSET 0.0 8.0 0.0
                CHANNELS 3 Zrotation Xrotation Yrotation
                JOINT Head
                {
                    OFFSET 0.0 5.0 0.0
                    CHANNELS 3 Zrotation Xrotation Yrotation
                    End Site
                    {
                        OFFSET 0.0 3.0 0.0
                    }
                }
            }
            JOINT LeftShoulder
            {
                OFFSET -5.0 0.0 0.0
                CHANNELS 3 Zrotation Xrotation Yrotation
                JOINT LeftArm
                {
                    OFFSET 0.0 -10.0 0.0
                    CHANNELS 3 Zrotation Xrotation Yrotation
                    JOINT LeftForeArm
                    {
                        OFFSET 0.0 -10.0 0.0
                        CHANNELS 3 Zrotation Xrotation Yrotation
                        End Site
                        {
                            OFFSET 0.0 -3.0 0.0
                        }
                    }
                }
            }
        }
    }
}

MOTION
Frames: 25
Frame Time: 0.033333
960.000000 445.000000 119.800004 0.000000 0.000000 0.000000 0.000000 0.000000 0.000000 23.025492 2.484994 0.000000 180.000000 -0.408179 0.000000 21.801409 4.229473 -0.000000 158.198591 1.002623 30.000000 15.945396 7.997305 0.000000 18.000000 -0.829877 0.000000
1691.525230 140.756605 106.584019 0.000000 0.000000 0.000000 0.000000 0.000000 0.000000 -163.376529 0.720832 4.973798 16.623471 1.246738 4.973798 -171.853121 -3.400103 3.759997 99.744051 -7.912357 29.763441 -171.126653 -3.365378 -3.759997 0.673538 0.391905 0.313953
1636.048050 128.802021 100.237075 0.000000 0.000000 0.000000 0.000000 0.000000 0.000000 157.904128 -0.958286 9.635073 -22.095872 -1.991092 9.635073 -171.936471 -4.094522 7.460697 -143.675701 -12.506359 29.057495 -173.500805 -3.485676 -7.460697 0.570999 0.404896 0.626666
1578.156967 80.474526 103.060448 0.000000 0.000000 0.000000 0.000000 0.000000 0.000000 -139.519796 -10.261350 13.690942 40.480204 8.299864 13.690942 -174.507724 -4.109784 11.043737 119.111399 4.009708 27.893295 -173.607258 -4.123884 -11.043737 0.461920 0.489923 0.936907
960.418757 444.998421 122.953747 0.000000 0.000000 0.000000 0.000000 0.000000 0.000000 25.077893 2.393877 16.886559 180.000000 16.380642 16.886559 23.861935 -4.597284 14.452610 156.138065 7.610589 26.289200 17.903699 -0.401311 -14.452610 18.000000 -0.561313 1.243449
960.523360 444.997533 118.620319 0.000000 0.000000 0.000000 0.000000 0.000000 0.000000 25.638906 -6.265051 19.021130 180.000000 0.700404 19.021130 24.425035 0.657254 17.633558 155.574965 -1.262978 24.270510 18.452907 -1.534586 -17.633558 18.000000 0.147788 1.545085
960.627905 444.996447 136.902025 0.000000 0.000000 0.000000 0.000000 0.000000 0.000000 26.219073 -14.231464 19.960535 180.000000 7.050378 19.960535 25.006291 -11.640372 20.536413 154.993709 -0.917670 21.869059 19.024920 1.928242 -20.536413 18.000000 -0.160335 1.840623
1126.242828 420.359820 127.708493 0.000000 0.000000 0.000000 0.000000 0.000000 0.000000 31.410514 6.020142 19.645745 -148.589486 1.529487 19.645745 32.280463 0.594061 23.115397 -131.603972 1.954136 19.122720 45.585331 -1.289461 -23.115397 -13.449727 -0.052713 2.128896
1257.895088 650.549197 150.207356 0.000000 0.000000 0.000000 0.000000 0.000000 0.000000 25.073180 -7.365036 18.096541 -154.926820 1.248866 18.096541 46.260945 2.787609 25.329838 -154.651428 -5.102685 16.074804 27.339487 5.383532 -25.329838 -13.619892 0.781432 2.408768
960.941083 444.992008 141.498850 0.000000 0.000000 0.000000 0.000000 0.000000 0.000000 28.072001 15.006210 15.410265 180.000000 -25.922398 15.410265 26.849221 17.119670 27.144812 153.150779 -10.348139 12.773379 20.864045 8.635116 -27.144812 18.000000 -1.839271 2.679134
1163.815842 547.748709 143.419955 0.000000 0.000000 0.000000 0.000000 0.000000 0.000000 117.162728 -1.647180 11.755705 -62.837272 -1.607400 11.755705 102.363764 -0.289121 28.531695 -47.376450 8.418957 9.270510 104.768601 -8.127109 -28.531695 -6.003489 0.181835 2.938926
961.149372 444.988063 140.165273 0.000000 0.000000 0.000000 0.000000 0.000000 0.000000 29.395983 29.951091 7.362491 180.000000 12.284747 7.362491 28.146217 -13.846429 29.468618 151.853783 -11.561091 5.621439 22.170006 10.818928 -29.468618 18.000000 -0.681472 3.187120
1136.717377 590.104480 137.778469 0.000000 0.000000 0.000000 0.000000 0.000000 0.000000 115.752126 4.688093 2.506665 -64.247874 -2.177066 2.506665 73.638146 1.681826 29.940802 -21.842452 -4.259146 1.883716 75.369282 10.043546 -29.940802 -6.767207 -1.361493 3.422736
1163.079758 634.077559 141.961107 0.000000 0.000000 0.000000 0.000000 0.000000 0.000000 132.174340 5.253969 -2.506665 -47.825660 0.237813 -2.506665 94.255711 -3.878310 29.940802 -149.364979 -7.221313 -1.883716 30.021641 5.917224 -29.940802 -5.096180 0.786709 3.644843
961.460830 444.980668 168.121675 0.000000 0.000000 0.000000 0.000000 0.000000 0.000000 31.497152 13.041764 -7.362491 180.000000 7.551302 -7.362491 30.152455 -18.001531 29.468618 149.847545 -10.285561 -5.621439 24.175589 6.139472 -29.468618 18.000000 -1.149070 3.852566
1097.449951 565.089898 149.602976 0.000000 0.000000 0.000000 0.000000 0.000000 0.000000 -119.219568 3.564050 -11.755705 60.780432 -5.277973 -11.755705 -150.180642 -6.893167 28.531695 48.804955 -2.961290 -9.270510 -149.874178 -6.315005 -28.531695 2.713854 0.580381 4.045085
1114.140244 528.302071 123.450362 0.000000 0.000000 0.000000 0.000000 0.000000 0.000000 -142.671523 -2.681623 -15.410265 37.328477 -6.474065 -15.410265 -177.395681 7.271380 27.144812 34.687329 -2.500919 -12.773379 161.894167 3.077341 -27.144812 -0.910956 -0.256592 4.221640
1116.433640 479.728639 151.698404 0.000000 0.000000 0.000000 0.000000 0.000000 0.000000 -102.267481 6.279364 -18.096541 77.732519 -2.379649 -18.096541 -163.695626 -2.785456 25.329838 38.575767 -1.243228 -16.074804 -176.001122 1.944267 -25.329838 0.706594 -0.193783 4.381533
1135.931282 466.493965 144.463552 0.000000 0.000000 0.000000 0.000000 0.000000 0.000000 -112.868406 -0.569535 -19.645745 67.131594 1.901089 -19.645745 -159.517862 -0.572562 23.115397 36.204678 -2.580757 -19.122720 -154.426613 -5.463624 -23.115397 2.428729 0.521223 4.524135
1141.618767 467.420679 159.064352 0.000000 0.000000 0.000000 0.000000 0.000000 0.000000 -123.086385 3.934863 -19.960535 56.913615 -7.480442 -19.960535 -154.885724 -2.064572 20.536413 36.481623 -3.806041 -21.869059 -153.965441 -5.621416 -20.536413 2.446728 0.498649 4.648882
1150.647926 469.370956 153.046638 0.000000 0.000000 0.000000 0.000000 0.000000 0.000000 -43.953779 -26.665416 -19.021130 136.046221 -1.299005 -19.021130 -154.327268 -6.681911 17.633558 60.745168 11.890428 -24.270510 -153.350642 -7.086250 -17.633558 2.386216 0.631296 4.755283
1151.529922 496.420240 154.060955 0.000000 0.000000 0.000000 0.000000 0.000000 0.000000 -116.362129 6.587026 -16.886559 63.637871 4.066385 -16.886559 -149.081043 -2.613218 14.452610 35.941860 0.783300 -26.289200 -156.847177 0.252227 -14.452610 2.056513 0.081661 4.842916
1148.402367 515.713574 143.095927 0.000000 0.000000 0.000000 0.000000 0.000000 0.000000 -118.252650 -4.476242 -13.690942 61.747350 12.577456 -13.690942 -138.082896 -1.672461 11.043737 -156.312677 -6.613902 -27.893295 21.649626 10.164646 -11.043737 2.962417 -0.024605 4.911436
1175.363617 533.368646 129.458114 0.000000 0.000000 0.000000 0.000000 0.000000 0.000000 -95.476638 -15.779192 -9.635073 84.523362 -4.393405 -9.635073 -113.907461 4.221262 7.460697 -155.995907 -6.759090 -29.057495 12.512064 7.334063 -7.460697 -16.748794 -0.733406 4.960574
1199.533310 485.991104 141.239284 0.000000 0.000000 0.000000 0.000000 0.000000 0.000000 -100.003195 5.074225 -4.973798 79.996805 -5.058447 -4.973798 -86.083188 0.736964 3.759997 38.843754 -1.204871 -29.763441 -106.539452 1.410869 -3.759997 6.197806 -0.171638 4.990134
